<svg width="352" height="36" viewBox="0 0 352 36" fill="none" xmlns="http://www.w3.org/2000/svg">
<path d="M0.459473 35.3017V0.300014H12.11C18.5103 0.300014 23.2106 4.75023 23.2106 11.4006C23.2106 18.0509 18.5103 22.5011 12.11 22.5011H6.05974V35.3017H0.459473ZM6.05974 5.60027V17.2008H12.11C15.6102 17.2008 17.8103 14.8507 17.8103 11.4006C17.8103 7.95038 15.6102 5.60027 12.11 5.60027H6.05974Z" fill="#F54D06"/>
<path d="M61.4827 17.8009C61.4827 27.6513 54.0824 35.6017 44.1819 35.6017C34.2814 35.6017 26.8811 27.6513 26.8811 17.8009C26.8811 7.95038 34.2814 0 44.1819 0C54.0824 0 61.4827 7.95038 61.4827 17.8009Z" fill="#F54D06"/>
<path d="M75.0428 0.300014H80.643L84.1932 10.9505L87.7434 0.300014H93.3436L86.9433 18.9009L89.9935 27.8013L99.894 0.300014H105.794L92.7936 35.3017H87.1934L84.1932 26.6513L81.1931 35.3017H75.5928L62.5922 0.300014H68.4924L78.3929 27.8013L81.4431 18.9009L75.0428 0.300014Z" fill="#F54D06"/>
<path d="M109.644 35.3017V0.300014H131.595V5.60027H115.245V15.0007H123.195V20.301H115.245V30.0014H131.896V35.3017H109.644Z" fill="#F54D06"/>
<path d="M136.745 0.300014H146.996C152.546 0.300014 157.046 3.90019 157.046 10.3005C157.046 15.9008 153.396 19.2509 149.096 20.101L157.046 35.3017H150.646L143.146 20.301H142.346V35.3017H136.745V0.300014ZM142.346 5.60027V15.0007H147.046C150.046 15.0007 151.546 13.0006 151.546 10.3005C151.546 7.60037 150.046 5.60027 147.046 5.60027H142.346Z" fill="#F54D06"/>
<path d="M186.327 0.300014H191.928L195.478 10.9505L199.028 0.300014H204.628L198.228 18.9009L201.278 27.8013L211.179 0.300014H217.079L204.078 35.3017H198.478L195.478 26.6513L192.478 35.3017H186.877L173.877 0.300014H179.777L189.678 27.8013L192.728 18.9009L186.327 0.300014Z" fill="#F54D06"/>
<path d="M244.287 35.3017H238.437L236.336 29.5514H220.736L218.636 35.3017H212.785L225.736 0.300014H231.336L244.287 35.3017ZM228.536 7.80038L222.586 24.2512H234.486L228.536 7.80038Z" fill="#F54D06"/>
<path d="M248.128 35.3017V0.300014H253.728V30.0014H270.379V35.3017H248.128Z" fill="#F54D06"/>
<path d="M276.254 35.3017V0.300014H281.854V30.0014H298.505V35.3017H276.254Z" fill="#F54D06"/>
<path d="M304.38 35.3017V0.300014H326.331V5.60027H309.981V15.0007H317.931V20.301H309.981V30.0014H326.631V35.3017H304.38Z" fill="#F54D06"/>
<path d="M330.034 5.60027V0.300014H351.535V5.60027H343.585V35.3017H337.985V5.60027H330.034Z" fill="#F54D06"/>
<path d="M44.1004 23.7505C42.6876 25.1699 40.732 26.0484 38.5712 26.0484C34.2628 26.0484 30.7701 22.5558 30.7701 18.2474C30.7701 13.939 34.2628 10.4464 38.5712 10.4464C40.7187 10.4464 42.6636 11.3142 44.0743 12.7182L42.9485 13.844C41.826 12.728 40.2791 12.0384 38.5712 12.0384C35.142 12.0384 32.3622 14.8183 32.3622 18.2474C32.3622 21.6765 35.142 24.4564 38.5712 24.4564C40.2924 24.4564 41.85 23.756 42.9746 22.6248L44.1004 23.7505Z" fill="white"/>
<path d="M42.9744 22.6251L52.9181 12.6815L54.0438 13.8073L44.1002 23.7509L42.9744 22.6251Z" fill="white"/>
<path d="M54.057 22.7003L44.0693 12.7127L42.9436 13.8384L52.9312 23.8261L54.057 22.7003Z" fill="white"/>
<path d="M56.2282 10.7495C54.9487 11.1176 53.8041 11.8043 52.8859 12.7182L54.0116 13.844C54.6347 13.2245 55.3886 12.7364 56.2282 12.4247L56.2282 10.7495Z" fill="white"/>
<path d="M56.2282 24.0701C55.3769 23.754 54.6137 23.2566 53.9855 22.6248L52.8598 23.7505C53.7824 24.6775 54.9366 25.3738 56.2282 25.7453L56.2282 24.0701Z" fill="white"/>
</svg>
